<svg xmlns="http://www.w3.org/2000/svg" viewBox="0 0 1024 768"><defs><style>.cls-1,.cls-2,.cls-5{fill:none;stroke-linecap:round;stroke-linejoin:round;}.cls-1{stroke:#266b64;}.cls-1,.cls-2{stroke-width:14px;}.cls-2,.cls-5{stroke:#03796d;}.cls-3{font-size:114px;font-family:RobotoSlab-Bold, Roboto Slab;font-weight:700;}.cls-3,.cls-6{fill:#03796d;}.cls-4{letter-spacing:-0.01em;}.cls-5{stroke-width:7px;}</style></defs><title>Opción #3 copia 7</title><g id="Opción_2" data-name="Opción #2"><polyline class="cls-1" points="272.47 253.92 401.08 113.68 491.95 202.47"/></g><g id="Opción_3" data-name="Opción #3"><polyline class="cls-2" points="766 393.74 701.08 328.81 581.86 448.03 497.45 532.45 485.95 543.95 399 543.95"/><polyline class="cls-1" points="673 300.74 608.08 235.81 488.86 355.03 404.45 439.45"/><polyline class="cls-2" points="249 384 290.86 339.03 410.08 219.81 478 284.74 527 231 584.5 173.5 631.5 220.5"/><text class="cls-3" transform="translate(223.52 546.5)">EN</text><text class="cls-3" transform="translate(220.46 665.5)">CO<tspan class="cls-4" x="154.47" y="0">L</tspan><tspan x="219.87" y="0">OMBIA</tspan></text><text class="cls-3" transform="translate(592.16 546.5)">POR</text><rect class="cls-5" x="189.5" y="75.5" width="659" height="637"/></g><g id="Opción_4" data-name="Opción #4"><path class="cls-6" d="M474.67,397.32c-5.12,3.31-7.83,6.25-4.76,11.27a.82.82,0,0,0,.59.37c5.59.68,5.11.33,12.72.51a1.06,1.06,0,0,0,.55-.15c5.1-3.37,8.59-7.51,5.26-12.65S479.89,393.93,474.67,397.32Z"/><path class="cls-6" d="M475.06,504.11c9.38,9.18,24.86,8.59,34.53-1.29s9.89-25.37.52-34.54-24.87-8.59-34.53,1.28S465.68,494.94,475.06,504.11Zm5-5.12c-6.7-6.55-6.53-17.62.37-24.68s18-7.46,24.66-.91,6.53,17.61-.37,24.67S486.76,505.54,480.07,499Z"/><path class="cls-6" d="M487.92,424.05l12.8,2.35c1.09.75,2.54.79,4.69,1l4.71-4.81,4.33,2.33,10.22,2.16A23.28,23.28,0,0,0,531.32,447c9.37,9.17,24.86,8.59,34.53-1.29s9.89-25.38.52-34.55-24.87-8.59-34.53,1.29a25.94,25.94,0,0,0-5.28,7.86l-9.19-1.94-4-2.8,6.1-6.24s-.35-5.26-4.52-2.72l-12.79,12.83-13.82-6.09a4.45,4.45,0,0,0-3.94-.19c-1.51.57-9.74,2-11,5.26-.7,1.83-.93,11.8-1,20.07L486.52,424l-.17-.17Zm43.57,4.49,17.16,3.64a1.33,1.33,0,0,0,1.55-1l1.07-4.11a1.49,1.49,0,0,0-1.13-1.83l-16.72-3.54a18.79,18.79,0,0,1,3.27-4.55c6.9-7.06,18-7.48,24.67-.93s6.52,17.62-.38,24.68-18,7.47-24.65.92A16.58,16.58,0,0,1,531.49,428.54Z"/><path class="cls-6" d="M511.27,459.5l8.32,13.11a3.37,3.37,0,0,0,5.13.68l1.5-1.37a3.37,3.37,0,0,0,.73-4l-8.45-17.1a3.16,3.16,0,0,0-2.18-1.73l-28.26-5.17a3.38,3.38,0,0,1-2.76-3.6l.26-3a3.37,3.37,0,0,0-5.77-2.64l-10.9,11.15,0,0c0,2.74,0,4.93,0,6.07a3.25,3.25,0,0,0,2,3.08l.39.11c1.07.25,9.32.15,10.68.13a2.55,2.55,0,0,1,.39,0L508.77,458A3.38,3.38,0,0,1,511.27,459.5Z"/><path class="cls-6" d="M467.14,424.51c-.57-3.44-3-5.95-5.86-5.85l-5.72.21c-2.91.11-5.37,2.81-6,6.3Z"/><path class="cls-6" d="M467.26,427.2l-17.93.67-.23,15.71c-.08,4.3,2.61,7.67,6,7.54l5.72-.2c3.37-.13,6.15-3.72,6.22-8Z"/></g></svg>