<svg id="Capa_1" data-name="Capa 1" xmlns="http://www.w3.org/2000/svg" viewBox="0 0 64 64"><defs><style>.cls-1{fill:#fff;}.cls-2{fill:#03796d;}</style></defs><title>favicon-enbiciporcolombia</title><rect class="cls-1" width="64" height="64"/><g id="Favicon"><path class="cls-2" d="M14.66,4.58C12.33,6.07,11,7.47,12.42,9.8c.09.09.19.18.28.18a50.2,50.2,0,0,0,6,.28.34.34,0,0,0,.28-.09c2.43-1.58,4-3.54,2.43-6S17.17,3,14.66,4.58Z"/><path class="cls-2" d="M14.84,54.62c4.38,4.28,11.65,4,16.22-.56s4.66-11.93.28-16.22-11.65-4-16.22.56S10.46,50.33,14.84,54.62Zm2.33-2.43a8.12,8.12,0,0,1,.19-11.55c3.26-3.26,8.48-3.54,11.55-.47a8.22,8.22,0,0,1-.18,11.56,8.23,8.23,0,0,1-11.56.46Z"/><path class="cls-2" d="M20.9,17.07l6,1.11a4.34,4.34,0,0,0,2.24.47l2.24-2.24,2.05,1.12,4.75,1a11,11,0,0,0,3.07,9.31c4.38,4.29,11.65,4,16.22-.56s4.65-11.92.28-16.21-11.65-4-16.22.56A13.21,13.21,0,0,0,39,15.39l-4.29-.93-1.86-1.31,2.89-3s-.19-2.42-2.15-1.3l-6,6.05L21.09,12a2.18,2.18,0,0,0-1.87-.09c-.74.28-4.56.93-5.12,2.42-.37.84-.47,5.5-.47,9.41L20.25,17h-.1Zm20.41,2.14,8,1.68a.64.64,0,0,0,.74-.47l.47-2a.67.67,0,0,0-.47-.84h0L42.24,16a11,11,0,0,1,1.49-2.15,8.14,8.14,0,0,1,11.55-.46,8.12,8.12,0,0,1-.18,11.55,8.15,8.15,0,0,1-11.56.47,7.8,7.8,0,0,1-2.23-6.15Z"/><path class="cls-2" d="M31.89,33.74l3.92,6.15a1.51,1.51,0,0,0,2.14.47c.09-.09.19-.09.19-.19l.74-.65a1.56,1.56,0,0,0,.38-1.86l-4-8a1.55,1.55,0,0,0-1-.83L21,26.38a1.53,1.53,0,0,1-1.3-1.67l.09-1.4a1.51,1.51,0,0,0-1.4-1.68,1.71,1.71,0,0,0-1.3.47L12,27.31h0V30.2a1.66,1.66,0,0,0,.94,1.49l.18.1c.47.09,4.38.09,5,.09h.19l12.39,1.31A1.1,1.1,0,0,1,31.89,33.74Z"/><path class="cls-2" d="M11.12,17.25a2.91,2.91,0,0,0-2.8-2.7l-2.7.09a3.29,3.29,0,0,0-2.8,3Z"/><path class="cls-2" d="M11.21,18.56l-8.39.28L2.73,26.2c0,2.05,1.21,3.63,2.8,3.54l2.7-.1c1.58-.09,2.89-1.77,2.89-3.72Z"/><polygon class="cls-2" points="80.5 8.9 20.1 71 104.1 92.2 80.5 8.9"/></g></svg>