<svg id="Capa_1" data-name="Capa 1" xmlns="http://www.w3.org/2000/svg" viewBox="0 0 699.48 675.06"><defs><style>.cls-1{fill:#266b64;}.cls-2{fill:#03796d;}</style></defs><title>logotipo-enbiciporcolombia</title><g id="Opci贸n_2" data-name="Opci贸n 2"><path class="cls-1" d="M102.75,201.33a7,7,0,0,1-5.16-11.73L226.19,49.4a7,7,0,0,1,10.05-.28l90.9,88.8a7,7,0,1,1-9.78,10L231.63,64.18,107.91,199.06A7,7,0,0,1,102.75,201.33Z"/></g><path class="cls-2" d="M316.25,491.43h-87a7,7,0,0,1,0-14h84.1L322.8,468l84.4-84.5,119.2-119.2a7,7,0,0,1,5-2h0a7,7,0,0,1,4.95,2l64.9,65a7,7,0,1,1-9.9,9.89l-59.95-60L417.1,393.38l-84.4,84.49-11.5,11.51A7,7,0,0,1,316.25,491.43Z"/><path class="cls-1" d="M234.75,386.93A7,7,0,0,1,229.8,375l84.4-84.5,119.2-119.2a7,7,0,0,1,5-2.05h0a7,7,0,0,1,4.95,2.05l64.9,65a7,7,0,1,1-9.9,9.89l-59.95-60L324.1,300.38l-84.4,84.49A7,7,0,0,1,234.75,386.93Z"/><path class="cls-2" d="M79.25,331.43a7,7,0,0,1-5.12-11.77l41.9-45,.17-.18,119.2-119.2a7,7,0,0,1,9.79-.11l62.72,60,44.16-48.5.23-.23L409.8,109a7,7,0,0,1,9.9,0l47,47a7,7,0,1,1-9.9,9.9l-42.05-42-52.43,52.43-48.89,53.68a7,7,0,0,1-4.94,2.28,6.9,6.9,0,0,1-5.08-1.94l-63-60.26L126.19,284.29,84.37,329.2A7,7,0,0,1,79.25,331.43Z"/><path class="cls-2" d="M109.8,451.82H77.73v21.71h37.63V487H61V405.9h54.22v13.52H77.73v19.32H109.8Z"/><path class="cls-2" d="M191.07,487h-16.7l-32.51-53.33V487h-16.7V405.9h16.7l32.56,53.44V405.9h16.65Z"/><path class="cls-2" d="M121.6,579q-.94,13.08-9.66,20.59t-23,7.52q-15.58,0-24.52-10.49t-8.94-28.81v-5a48.68,48.68,0,0,1,4.12-20.6,30.9,30.9,0,0,1,11.78-13.67,33,33,0,0,1,17.78-4.75q14,0,22.6,7.51t9.91,21.1H105q-.62-7.86-4.37-11.39T89.2,537.48q-8.36,0-12.5,6T72.45,562v6.12q0,13.14,4,19.2T89,593.42q7.74,0,11.55-3.53T104.9,579Z"/><path class="cls-2" d="M199.14,567.26a48.9,48.9,0,0,1-4.23,21,31.8,31.8,0,0,1-12.11,13.92,33.44,33.44,0,0,1-18.06,4.9,33.79,33.79,0,0,1-18-4.84,32.2,32.2,0,0,1-12.25-13.84,47.6,47.6,0,0,1-4.4-20.68v-4a48.62,48.62,0,0,1,4.32-21.07,32,32,0,0,1,12.19-14,35.72,35.72,0,0,1,36,0,32,32,0,0,1,12.19,14,48.47,48.47,0,0,1,4.32,21Zm-16.92-3.68q0-12.74-4.57-19.37t-13-6.62q-8.41,0-13,6.54T147,563.31v4q0,12.4,4.56,19.26a14.84,14.84,0,0,0,13.14,6.85q8.4,0,12.91-6.6t4.57-19.23Z"/><path class="cls-2" d="M229.14,592.53H264.6V606H212.44V524.9h16.7Z"/><path class="cls-2" d="M344.42,567.26a48.9,48.9,0,0,1-4.23,21,31.8,31.8,0,0,1-12.11,13.92,33.44,33.44,0,0,1-18.06,4.9,33.79,33.79,0,0,1-18-4.84,32.2,32.2,0,0,1-12.25-13.84,47.6,47.6,0,0,1-4.4-20.68v-4a48.62,48.62,0,0,1,4.32-21.07,32,32,0,0,1,12.19-14,35.72,35.72,0,0,1,36,0,32,32,0,0,1,12.19,14,48.47,48.47,0,0,1,4.32,21Zm-16.92-3.68q0-12.74-4.57-19.37t-13-6.62q-8.42,0-13,6.54t-4.62,19.18v4q0,12.4,4.56,19.26A14.84,14.84,0,0,0,310,593.37q8.4,0,12.91-6.6t4.57-19.23Z"/><path class="cls-2" d="M378.37,524.9l20.82,58.78L419.9,524.9h21.93V606H425.08V583.79l1.67-38.24L404.87,606H393.4l-21.82-60.34,1.67,38.18V606h-16.7V524.9Z"/><path class="cls-2" d="M456.41,606V524.9H484.8q14.76,0,22.38,5.65t7.63,16.56a18.31,18.31,0,0,1-3.07,10.49,17.66,17.66,0,0,1-8.51,6.65,17.13,17.13,0,0,1,9.82,6.29,18.58,18.58,0,0,1,3.59,11.58q0,11.68-7.46,17.7T487.92,606Zm16.7-47.1h12.36q12.63-.21,12.64-10.07,0-5.52-3.2-7.93t-10.11-2.43H473.11Zm0,11.8v21.88h14.31q5.9,0,9.21-2.81a9.63,9.63,0,0,0,3.31-7.77q0-11.13-11.52-11.3Z"/><path class="cls-2" d="M546.92,606h-16.7V524.9h16.7Z"/><path class="cls-2" d="M608.15,589.25H578.88L573.31,606H555.55l30.17-81.05H601.2L631.53,606H613.78Zm-24.77-13.53h20.27l-10.19-30.34Z"/><path class="cls-2" d="M446.37,458.39V487h-16.7V405.9h31.62a36.52,36.52,0,0,1,16.06,3.34A24.59,24.59,0,0,1,488,418.73a26.44,26.44,0,0,1,3.73,14q0,11.91-8.16,18.79T461,458.39Zm0-13.53h14.92q6.63,0,10.1-3.11t3.48-8.91a13.4,13.4,0,0,0-3.5-9.63q-3.51-3.68-9.69-3.79H446.37Z"/><path class="cls-2" d="M569.78,448.26a48.9,48.9,0,0,1-4.23,21,31.8,31.8,0,0,1-12.11,13.92,33.44,33.44,0,0,1-18.06,4.9,33.79,33.79,0,0,1-18-4.84,32.2,32.2,0,0,1-12.25-13.84,47.46,47.46,0,0,1-4.39-20.68v-4a48.62,48.62,0,0,1,4.31-21.07,32.09,32.09,0,0,1,12.19-14,35.74,35.74,0,0,1,36,0,32.09,32.09,0,0,1,12.19,14,48.62,48.62,0,0,1,4.31,21Zm-16.92-3.68q0-12.74-4.57-19.37t-13-6.62q-8.41,0-13,6.54t-4.62,19.18v3.95q0,12.4,4.56,19.26a14.86,14.86,0,0,0,13.14,6.85q8.4,0,12.91-6.6t4.57-19.23Z"/><path class="cls-2" d="M611.92,457.28H598.61V487H581.92V405.9H612q14.36,0,22.15,6.4t7.8,18.09q0,8.3-3.59,13.83a24.52,24.52,0,0,1-10.89,8.83L645,486.17V487H627.11Zm-13.31-13.53h13.48q6.28,0,9.74-3.2t3.45-8.82q0-5.73-3.26-9t-10-3.29H598.61Z"/><path class="cls-2" d="M678.75,656.43h-659a3.5,3.5,0,0,1-3.5-3.5v-637a3.5,3.5,0,0,1,3.5-3.5h659a3.5,3.5,0,0,1,3.5,3.5v637A3.5,3.5,0,0,1,678.75,656.43Zm-655.5-7h652v-630h-652Z"/><g id="Opci贸n_4" data-name="Opci贸n 4"><path class="cls-2" d="M305,337.73c-5.1,3.3-7.8,6.3-4.8,11.3a.92.92,0,0,0,.6.4c5.6.7,5.1.3,12.7.5a4.33,4.33,0,0,0,.5-.1c5.1-3.4,8.6-7.5,5.3-12.6C316,331.93,310.15,334.33,305,337.73Z"/><path class="cls-2" d="M305.35,444.53c9.4,9.2,24.9,8.6,34.5-1.3s9.9-25.4.5-34.5-24.9-8.6-34.5,1.3S296,435.43,305.35,444.53Zm5-5.1c-6.7-6.5-6.5-17.6.4-24.7s18-7.5,24.7-.9,6.5,17.6-.4,24.7-18,7.5-24.7.9Z"/><path class="cls-2" d="M318.15,364.53l12.8,2.4c1.1.8,2.5.8,4.7,1l4.7-4.8,4.3,2.3,10.2,2.2a23.08,23.08,0,0,0,6.7,19.9c9.4,9.2,24.9,8.6,34.5-1.3s9.9-25.4.5-34.5-24.9-8.6-34.5,1.3a26.74,26.74,0,0,0-5.3,7.9l-9.2-1.9-4-2.8,6.1-6.2s-.3-5.3-4.5-2.7l-12.8,12.8-13.8-6.1a4.47,4.47,0,0,0-3.9-.2c-1.5.6-9.7,2-11,5.3-.7,1.8-.9,11.8-1,20.1l14.1-14.5-.2-.2Zm43.6,4.5,17.2,3.6a1.27,1.27,0,0,0,1.5-1l1.1-4.1a1.49,1.49,0,0,0-1.1-1.8h-.1l-16.7-3.5a18.67,18.67,0,0,1,3.3-4.5c6.9-7.1,18-7.5,24.7-.9s6.5,17.6-.4,24.7-18,7.5-24.7.9a17.2,17.2,0,0,1-4.8-13.4Z"/><path class="cls-2" d="M341.55,399.93l8.3,13.1a3.29,3.29,0,0,0,4.6,1,1.76,1.76,0,0,0,.5-.4l1.5-1.4a3.35,3.35,0,0,0,.7-4l-8.5-17.1a3,3,0,0,0-2.2-1.7l-28.3-5.2a3.47,3.47,0,0,1-2.8-3.6l.3-3a3.24,3.24,0,0,0-3.1-3.6,3.39,3.39,0,0,0-2.7,1L299,386.13h0v6.1a3.42,3.42,0,0,0,2,3.1l.4.1c1.1.3,9.3.1,10.7.1h.4l26.4,2.8A4.14,4.14,0,0,1,341.55,399.93Z"/><path class="cls-2" d="M297.45,364.93c-.6-3.4-3-6-5.9-5.9l-5.7.2c-2.9.1-5.4,2.8-6,6.3Z"/><path class="cls-2" d="M297.55,367.63l-17.9.7-.2,15.7c-.1,4.3,2.6,7.7,6,7.5l5.7-.2c3.4-.1,6.2-3.7,6.2-8Z"/></g></svg>