<svg xmlns="http://www.w3.org/2000/svg" viewBox="0 0 64 64"><defs><style>.cls-1{fill:#03796d;}</style></defs><title>favicon-enbiciporcolombia</title><g id="Favicon"><path class="cls-1" d="M13.44,2.66C10.86,4.32,9.49,5.81,11,8.33a.41.41,0,0,0,.3.19,48,48,0,0,0,6.4.26A.57.57,0,0,0,18,8.7c2.57-1.7,4.32-3.78,2.65-6.37S16.06,1,13.44,2.66Z"/><path class="cls-1" d="M13.63,56.42c4.72,4.63,12.52,4.33,17.39-.64s5-12.78.26-17.39S18.76,34.06,13.89,39,8.91,51.81,13.63,56.42Zm2.52-2.57a8.81,8.81,0,0,1,.19-12.43A8.8,8.8,0,0,1,28.75,41a8.82,8.82,0,0,1-.18,12.42,8.81,8.81,0,0,1-12.42.47Z"/><path class="cls-1" d="M20.11,16.12l6.44,1.18a5,5,0,0,0,2.36.5l2.37-2.42,2.18,1.17,5.15,1.09a11.71,11.71,0,0,0,3.35,10C46.68,32.29,54.47,32,59.34,27s5-12.78.26-17.39-12.52-4.33-17.38.65a13.09,13.09,0,0,0-2.66,4l-4.63-1-2-1.41L36,8.71s-.17-2.65-2.27-1.37L27.28,13.8l-7-3.07a2.25,2.25,0,0,0-2-.1c-.76.29-4.9,1-5.53,2.65-.36.92-.47,5.94-.51,10.11l7.11-7.3L19.32,16ZM42,18.38l8.64,1.83a.66.66,0,0,0,.78-.5L52,17.64a.76.76,0,0,0-.54-.92h0L43,14.93a9.49,9.49,0,0,1,1.64-2.29,8.82,8.82,0,0,1,12.42-.47,8.82,8.82,0,0,1-.19,12.43,8.79,8.79,0,0,1-12.41.46A8.35,8.35,0,0,1,42,18.38Z"/><path class="cls-1" d="M31.86,34l4.19,6.61a1.7,1.7,0,0,0,2.34.52,1.08,1.08,0,0,0,.24-.18l.76-.69a1.71,1.71,0,0,0,.37-2L35.5,29.59a1.6,1.6,0,0,0-1.09-.87l-14.23-2.6a1.7,1.7,0,0,1-1.39-1.81l.13-1.51A1.7,1.7,0,0,0,16,21.47l-5.48,5.61h0v3.06a1.63,1.63,0,0,0,1,1.55l.2,0c.54.13,4.69.08,5.38.07h.19l13.3,1.4A1.71,1.71,0,0,1,31.86,34Z"/><path class="cls-1" d="M9.64,16.35a3.17,3.17,0,0,0-2.95-3l-2.88.11a3.55,3.55,0,0,0-3,3.17Z"/><path class="cls-1" d="M9.71,17.7.68,18,.56,26c0,2.16,1.32,3.86,3,3.8l2.88-.11c1.7-.06,3.1-1.87,3.13-4Z"/><polygon class="cls-1" points="80.45 8.88 20.11 71.01 104.08 92.2 80.45 8.88"/></g></svg>